<!DOCTYPE svg PUBLIC "-//W3C//DTD SVG 20010904//EN" "http://www.w3.org/TR/2001/REC-SVG-20010904/DTD/svg10.dtd">
<svg version="1.0" xmlns="http://www.w3.org/2000/svg" width="1600px" height="1051px" viewBox="0 0 16000 10510" preserveAspectRatio="xMidYMid meet">
<g id="layer1" fill="#000000" stroke="none">
 <path d="M2639 10210 c-42 -11 -105 -33 -140 -50 -70 -34 -149 -104 -149 -132 0 -10 17 -29 38 -42 20 -13 56 -43 80 -66 l43 -42 42 45 c66 71 184 114 281 104 29 -3 79 -16 112 -30 50 -21 64 -33 90 -76 48 -78 51 -113 17 -180 -25 -48 -36 -59 -93 -87 -36 -18 -108 -45 -160 -60 -292 -85 -425 -236 -407 -463 11 -147 87 -257 226 -330 110 -57 225 -72 371 -48 56 9 123 26 148 37 45 20 142 104 142 123 0 11 -142 157 -153 157 -5 0 -29 -20 -54 -45 -63 -64 -101 -78 -203 -79 -107 0 -165 23 -209 85 -43 58 -54 107 -40 164 22 88 110 142 360 220 64 20 136 48 160 64 56 35 131 137 146 199 28 116 8 243 -53 340 -54 86 -82 110 -169 152 -131 63 -277 76 -426 40z"/>
 <path d="M320 9485 l0 -705 293 0 c343 0 392 7 491 70 96 61 127 102 150 197 35 150 8 307 -66 382 -52 52 -138 105 -195 120 -24 7 -43 14 -43 18 0 3 15 26 34 52 19 26 50 74 68 108 18 33 62 106 98 161 36 56 76 121 90 145 62 108 74 127 82 127 4 0 8 7 8 15 0 13 -21 15 -127 15 l-128 0 -70 -116 c-38 -63 -88 -150 -110 -192 -22 -43 -52 -95 -66 -117 -15 -22 -45 -73 -68 -112 l-42 -73 -94 0 -95 0 0 305 0 305 -105 0 -105 0 0 -705z m615 -120 c33 -17 72 -47 90 -68 28 -36 30 -45 30 -116 0 -72 -2 -80 -32 -118 -61 -77 -154 -101 -385 -102 l-108 -1 0 221 0 221 173 -3 c168 -4 174 -5 232 -34z"/>
 <path d="M1720 9485 l0 -705 105 0 105 0 0 705 0 705 -105 0 -105 0 0 -705z"/>
 <path d="M3750 9485 l0 -705 460 0 460 0 0 100 0 100 -355 0 -355 0 0 200 0 200 330 0 330 0 0 95 0 95 -330 0 -330 0 0 215 0 215 375 0 375 0 0 95 0 95 -480 0 -480 0 0 -705z"/>
 <path d="M5160 9485 l0 -705 133 0 132 0 84 131 c46 71 106 160 132 196 27 36 49 71 49 77 0 6 19 36 42 66 23 30 84 120 136 200 52 80 108 160 125 179 16 19 35 48 42 65 7 17 35 60 62 97 26 36 56 76 65 90 16 23 17 -6 17 -538 l1 -563 105 0 105 0 0 705 0 705 -134 0 -134 0 -34 -47 c-19 -27 -39 -59 -46 -73 -7 -14 -45 -68 -83 -120 -39 -52 -78 -109 -87 -126 -18 -33 -126 -190 -161 -234 -11 -14 -21 -29 -21 -35 -1 -5 -19 -35 -41 -65 -36 -51 -121 -175 -144 -211 -5 -9 -39 -58 -75 -110 l-65 -94 -3 558 -2 557 -100 0 -100 0 0 -705z"/>
 <path d="M7210 9585 l0 -605 -225 0 -225 0 0 -100 0 -100 550 0 550 0 0 100 0 100 -220 0 -220 0 0 605 0 605 -105 0 -105 0 0 -605z"/>
 <path d="M9316 10148 c-10 -24 -38 -97 -61 -163 -23 -66 -70 -187 -105 -270 -34 -82 -70 -177 -80 -210 -10 -33 -54 -149 -99 -259 -45 -109 -81 -204 -81 -211 0 -7 -20 -61 -45 -121 -25 -59 -45 -113 -45 -120 0 -11 26 -14 118 -14 133 0 132 -1 148 87 3 21 10 43 14 48 4 6 11 21 15 35 10 35 102 278 121 319 8 19 19 53 24 75 4 23 29 95 54 161 78 200 126 332 126 346 0 8 4 20 9 27 5 9 21 -20 46 -85 21 -54 53 -134 70 -178 18 -44 49 -129 70 -190 20 -60 43 -123 50 -140 28 -61 115 -286 115 -297 0 -6 17 -55 38 -109 l37 -99 114 0 114 0 -6 29 c-3 15 -17 52 -30 82 -33 73 -80 191 -105 264 -20 59 -85 220 -122 300 -10 23 -27 68 -38 100 -25 75 -68 186 -91 240 -43 96 -90 212 -96 240 -3 16 -19 58 -33 92 l-27 63 -100 0 -100 0 -19 -42z"/>
 <path d="M10430 9485 l0 -705 460 0 460 0 0 100 0 100 -355 0 -355 0 0 200 0 200 330 0 330 0 0 95 0 95 -330 0 -330 0 0 215 0 215 370 0 370 0 0 95 0 95 -475 0 -475 0 0 -705z"/>
 <path d="M11830 9484 l0 -705 308 3 c362 4 396 11 501 98 83 70 104 117 109 246 4 88 1 106 -18 145 -26 51 -102 134 -145 156 l-30 16 30 11 c81 30 153 95 196 178 20 38 23 58 23 163 1 106 -2 125 -22 165 -54 103 -145 171 -275 205 -87 23 -107 25 -384 25 l-293 0 0 -706z m605 505 c70 -20 138 -88 154 -155 9 -37 9 -62 1 -99 -17 -74 -43 -108 -112 -146 l-63 -34 -187 -3 -188 -4 0 232 0 232 173 -4 c103 -3 192 -11 222 -19z m-48 -644 c56 -17 127 -83 139 -130 13 -52 -2 -124 -33 -162 -65 -81 -100 -91 -320 -92 l-133 -1 0 200 0 200 148 0 c103 0 164 -5 199 -15z"/>
 <path d="M13260 9485 l0 -705 460 0 460 0 0 100 0 100 -355 0 -355 0 0 200 0 200 330 0 330 0 0 95 0 95 -330 0 -330 0 0 215 0 215 375 0 375 0 0 95 0 95 -480 0 -480 0 0 -705z"/>
 <path d="M14660 9485 l0 -705 289 0 c390 0 449 13 563 123 77 74 97 121 105 248 5 72 2 97 -17 154 -37 112 -146 212 -268 244 -23 7 -42 16 -42 21 0 4 10 21 23 37 22 27 115 173 147 231 8 15 52 84 98 153 45 70 82 133 82 142 0 8 7 20 15 27 8 7 15 16 15 21 0 5 -57 9 -127 9 l-128 0 -20 -33 c-10 -17 -30 -50 -43 -72 -13 -22 -40 -69 -59 -105 -34 -62 -81 -142 -142 -241 -16 -25 -32 -56 -36 -68 -4 -12 -16 -38 -28 -56 l-22 -34 -97 -1 -98 0 0 305 0 305 -105 0 -105 0 0 -705z m546 -96 c69 -12 121 -43 161 -95 25 -33 28 -46 28 -109 0 -61 -4 -77 -27 -113 -56 -84 -154 -112 -395 -112 l-103 0 0 220 0 220 138 0 c76 0 165 -5 198 -11z"/>
 <path d="M6400 7666 c0 -46 8 -231 17 -412 20 -390 22 -1073 5 -1319 -7 -93 -17 -240 -22 -325 -16 -276 -62 -579 -156 -1025 -60 -288 -55 -268 -140 -542 -25 -79 -51 -168 -59 -198 -8 -31 -47 -135 -86 -233 -39 -97 -82 -204 -94 -237 -29 -78 -209 -445 -250 -510 -17 -27 -49 -81 -70 -120 -21 -38 -68 -114 -104 -169 -36 -54 -86 -129 -111 -167 -25 -37 -70 -98 -100 -136 -31 -37 -64 -81 -75 -98 -10 -16 -24 -34 -31 -40 -7 -5 -45 -48 -84 -95 -66 -77 -208 -229 -258 -273 -17 -15 -26 -16 -66 -7 -25 5 -79 15 -118 20 -67 10 -368 80 -578 135 -79 20 -85 24 -82 46 1 13 11 96 21 184 11 88 18 162 16 164 -2 2 -56 -32 -120 -75 -63 -44 -133 -88 -153 -100 -21 -11 -58 -35 -83 -53 -49 -35 -131 -90 -295 -198 -116 -75 -141 -97 -126 -107 23 -14 489 -157 587 -180 61 -14 228 -56 372 -93 l261 -68 -33 -20 c-19 -11 -61 -42 -94 -70 -33 -27 -88 -67 -124 -90 -35 -22 -109 -68 -163 -103 -55 -35 -106 -66 -114 -71 -8 -4 -46 -24 -85 -45 -127 -67 -289 -144 -352 -167 -73 -27 -101 -45 -87 -58 10 -11 317 -101 342 -101 10 0 61 -13 116 -29 l98 -29 94 49 c102 53 111 58 229 134 44 29 100 64 125 79 25 15 68 45 95 67 28 22 73 55 100 73 28 19 117 90 199 158 l149 123 216 -42 c119 -23 250 -46 291 -51 41 -6 208 -33 370 -61 345 -59 704 -111 763 -111 23 0 112 -9 197 -20 687 -89 1506 -146 2250 -159 l384 -6 41 -77 c22 -42 67 -120 100 -173 33 -53 69 -114 79 -136 l19 -39 229 0 c157 0 228 3 228 11 0 6 -13 29 -29 52 -41 59 -212 359 -207 364 4 5 23 6 426 23 449 20 898 60 1425 125 154 19 321 40 370 46 258 32 466 87 542 145 17 13 36 24 41 24 17 0 99 98 124 148 21 42 23 61 23 182 l0 135 -38 68 c-85 155 -199 270 -402 406 -164 110 -444 251 -630 315 -27 10 -133 47 -235 83 -102 36 -212 71 -245 78 -33 7 -158 38 -277 69 -221 56 -458 105 -603 125 -44 5 -152 22 -240 35 -133 22 -406 56 -652 82 l-53 5 84 84 c47 45 92 97 100 114 9 17 20 31 25 31 7 0 151 193 151 203 0 2 36 64 80 136 43 73 82 142 85 154 7 24 14 39 70 162 36 78 99 240 125 320 31 97 187 396 264 505 81 114 232 276 284 303 15 8 63 35 107 60 150 85 344 125 551 113 238 -13 491 -73 972 -232 90 -30 170 -54 178 -54 19 0 13 22 -27 102 -16 32 -29 65 -29 73 0 9 -17 53 -39 98 -64 136 -118 258 -147 332 -15 39 -56 132 -90 208 -35 75 -64 142 -64 147 0 38 -40 -30 -164 -276 l-61 -121 -30 9 c-212 58 -487 83 -759 68 -130 -7 -167 -13 -266 -43 -134 -41 -309 -130 -414 -211 -109 -83 -242 -229 -337 -368 -82 -120 -268 -474 -285 -543 -7 -29 -73 -201 -99 -260 -117 -259 -149 -323 -187 -382 -25 -37 -53 -84 -63 -103 -52 -101 -257 -325 -370 -405 -170 -120 -305 -175 -430 -175 l-74 0 -31 68 c-18 37 -42 81 -54 97 -25 34 -88 140 -136 230 -18 33 -46 80 -63 105 -17 25 -73 119 -125 210 -52 91 -105 179 -117 195 -13 17 -30 47 -38 67 -14 34 -51 94 -144 240 -18 27 -33 54 -33 59 0 10 -40 78 -105 179 -23 36 -50 81 -61 100 -34 65 -87 155 -129 220 -23 36 -52 85 -63 110 -12 25 -53 95 -91 155 -39 61 -78 127 -87 148 -9 21 -21 36 -27 34 -10 -3 -36 -93 -112 -388 l-35 -136 25 -44 c15 -24 51 -82 81 -129 29 -47 63 -105 74 -129 12 -25 40 -74 64 -110 24 -36 61 -97 83 -136 22 -38 59 -104 83 -145 23 -41 53 -89 66 -107 13 -17 40 -62 59 -100 20 -37 63 -111 95 -163 33 -52 70 -117 83 -145 13 -27 41 -75 62 -105 20 -30 75 -120 120 -200 46 -80 104 -176 129 -215 25 -38 46 -73 46 -78 0 -9 107 -189 143 -242 12 -16 32 -52 45 -80 13 -27 43 -79 67 -115 23 -36 66 -108 95 -160 29 -52 79 -137 112 -188 32 -51 62 -100 65 -110 7 -21 121 -211 139 -232 7 -8 27 -44 44 -80 18 -36 42 -78 54 -95 12 -16 42 -64 66 -105 24 -41 47 -76 52 -78 4 -2 8 -11 8 -21 0 -9 6 -25 13 -36 7 -11 24 -38 37 -59 l24 -39 -270 7 c-567 14 -1212 56 -1729 111 -77 8 -219 22 -315 30 -216 19 -459 51 -875 116 -176 28 -356 55 -400 60 -44 5 -118 16 -165 24 -47 9 -102 19 -123 22 l-37 6 37 42 c86 95 142 163 216 259 43 56 100 129 127 163 27 34 61 84 75 110 15 26 44 71 65 98 41 55 78 112 117 183 14 26 57 100 95 165 39 65 73 128 77 140 3 12 41 90 82 172 42 83 84 170 92 195 17 48 60 155 82 205 31 68 105 266 105 280 0 9 22 82 50 163 59 175 118 378 126 436 4 22 21 106 40 186 64 281 126 634 139 795 3 44 15 165 25 270 11 104 24 287 30 405 6 118 14 248 17 288 l5 73 28 -38 c16 -21 44 -68 63 -103 42 -79 148 -253 159 -260 4 -3 15 -24 24 -45 9 -22 35 -69 59 -105 23 -36 77 -126 120 -200 43 -74 94 -159 115 -190 20 -30 46 -71 56 -90 33 -62 138 -234 166 -274 15 -21 28 -44 28 -51 0 -7 23 -48 51 -91 28 -42 87 -141 132 -218 44 -78 91 -154 103 -171 12 -16 33 -50 46 -75 13 -25 55 -96 94 -158 38 -62 84 -141 102 -175 18 -34 47 -84 66 -112 40 -59 116 -183 116 -190 0 -6 74 -129 116 -190 18 -27 46 -74 61 -102 59 -111 105 -184 119 -190 7 -3 44 15 81 40 37 25 106 66 153 92 47 25 89 50 94 55 9 9 -28 80 -66 129 -10 14 -27 43 -37 66 -10 22 -36 68 -58 100 -22 33 -75 121 -118 195 -43 74 -95 160 -116 191 -21 31 -46 71 -54 90 -8 19 -47 84 -85 144 -38 61 -81 133 -94 160 -13 28 -39 73 -58 100 -19 28 -70 111 -113 185 -43 74 -95 159 -116 190 -21 31 -52 83 -69 116 -32 62 -69 122 -131 216 -21 31 -45 72 -53 92 -8 19 -34 65 -59 103 -24 37 -73 118 -107 178 -35 61 -87 147 -117 192 -29 45 -60 97 -69 115 -8 18 -44 78 -79 133 -36 55 -74 120 -86 145 -12 25 -41 74 -64 110 -51 78 -125 199 -125 204 0 6 -82 144 -117 196 -16 25 -38 61 -49 80 -34 63 -138 234 -166 274 -15 21 -28 44 -28 51 0 7 -22 45 -49 86 -26 41 -81 130 -120 199 -88 151 -163 269 -173 270 -5 0 -8 -38 -8 -84z m2710 -5057 c226 -14 459 -36 685 -64 105 -14 244 -31 310 -40 241 -30 423 -65 690 -131 99 -25 212 -51 250 -59 68 -14 173 -48 475 -154 147 -51 524 -231 577 -274 15 -13 57 -44 93 -68 36 -25 84 -62 106 -84 44 -42 124 -142 124 -154 0 -15 -79 -51 -141 -65 -105 -24 -450 -76 -607 -91 -81 -8 -246 -26 -367 -39 -495 -56 -1258 -106 -1625 -106 l-75 0 -43 73 c-23 39 -62 104 -85 142 -24 39 -65 108 -91 155 -27 47 -68 115 -92 151 -24 36 -47 76 -53 90 -5 13 -41 76 -80 139 -39 63 -79 131 -88 150 -10 19 -43 76 -74 125 -31 50 -80 133 -109 185 -29 52 -59 105 -67 117 l-16 23 69 -5 c38 -3 143 -10 234 -16z"/>
 </g>

</svg>